<svg width="245" height="244" viewBox="0 0 245 244" fill="none" xmlns="http://www.w3.org/2000/svg">
<path fill-rule="evenodd" clip-rule="evenodd" d="M48.2278 5.884C43.9228 10.234 42.5668 12.255 43.0278 13.634C43.3708 14.66 47.8048 18.462 52.8818 22.082C69.2358 33.743 131.067 79.114 132.509 80.51C133.694 81.659 132.355 83.64 123.605 93.681C117.941 100.182 105.908 114.139 96.8658 124.699L80.4258 143.897L75.7698 142.063C59.0678 135.486 54.8578 134.009 52.8028 134.005C49.9398 133.999 39.8188 143.332 38.9548 146.775C38.4138 148.929 41.6718 152.548 66.7208 177.608C82.3288 193.224 95.6518 206 96.3268 206C97.9908 206 110.614 193.466 110.611 191.816C110.61 191.092 108.36 184.734 105.611 177.687C102.862 170.64 100.613 164.5 100.613 164.042C100.613 163.584 106.126 158.55 112.863 152.855C125.447 142.218 155.041 116.601 159.762 112.256L162.411 109.819L166.632 115.409C171.041 121.249 173.796 122.396 175.548 119.121C176.354 117.615 175.767 116.145 172.583 111.698C170.4 108.649 168.613 105.764 168.613 105.287C168.613 104.81 174.762 98.813 182.278 91.96C201.466 74.465 202.531 73.606 203.089 75.175C203.349 75.904 210.984 101.46 220.057 131.967L236.554 187.434L234.438 189.686C233.274 190.925 231.986 191.73 231.574 191.476C231.163 191.222 220.64 177.105 208.189 160.104C195.739 143.104 184.853 128.614 183.999 127.905C182.008 126.253 179.088 127.939 179.172 130.691C179.223 132.366 222.405 192.645 227.927 198.75C229.046 199.988 230.715 201 231.635 201C232.555 201 235.835 198.351 238.923 195.113C243.997 189.795 244.458 188.95 243.705 186.363C243.246 184.789 240.742 176.392 238.139 167.705L233.408 151.91L238.511 146.515C242.965 141.805 243.613 140.591 243.613 136.96C243.613 133.531 242.992 132.179 240.077 129.264C236.7 125.887 236.299 125.753 231.172 126.282C226.31 126.784 225.751 126.636 225.25 124.72C224.837 123.14 225.94 121.29 229.609 117.411C236.867 109.737 237.396 104.629 231.54 98.773C228.976 96.21 227.989 95.86 224.341 96.224C222.016 96.455 219.468 96.837 218.679 97.073C217.603 97.393 216.143 93.799 212.834 82.689L208.423 67.877L218.317 57.689C233.112 42.452 240.659 31.231 243.614 20.071C246.634 8.665 240.725 0 229.928 0C218.592 0 204.693 8.139 187.113 25.071L176.113 35.665L161.774 31.411C153.888 29.071 147.248 26.969 147.02 26.74C146.791 26.511 147.103 24.893 147.712 23.145C149.16 18.992 148.186 15.419 144.639 11.872C142.302 9.535 140.903 9 137.13 9C132.923 9 131.991 9.475 127.084 14.116C122.632 18.326 121.231 19.121 119.173 18.604C116.913 18.037 116.772 17.713 117.709 15.249C119.874 9.552 116.708 3.495 110.294 1.065C106.148 -0.506 102.743 0.772 97.1248 6.008L92.1128 10.679L74.6128 5.408C64.9878 2.51 56.4238 0.107 55.5818 0.069C54.7388 0.031 51.4298 2.648 48.2278 5.884ZM235.636 9.75C238.435 13.301 237.914 17.612 233.635 26.304C227.375 39.019 211.948 55.571 176.079 88.053C144.096 117.016 77.5738 174.227 75.2348 174.781C74.5818 174.936 72.7958 173.757 71.2658 172.16L68.4848 169.257L73.7538 162.879C86.7338 147.165 133.028 93.582 150.11 74.5C173.645 48.211 200.162 21.645 208.404 16.102C222.434 6.664 231.531 4.543 235.636 9.75ZM113.717 24.507C144.185 33.585 169.479 41.132 169.927 41.278C170.374 41.423 166.774 45.817 161.927 51.042C157.079 56.267 149.926 64.055 146.03 68.349L138.947 76.155L106.53 52.435C88.7008 39.389 69.0908 25.013 62.9538 20.488L51.7948 12.262L53.9258 10.131C55.0978 8.959 56.5668 8 57.1898 8C57.8118 8 83.2498 15.428 113.717 24.507ZM110.647 10.064C112.803 14.093 108.782 16.155 103.033 13.969L100.322 12.939L102.642 10.469C105.475 7.453 109.15 7.267 110.647 10.064ZM140.46 17.75C141.727 20.169 140.094 24 137.794 24C136.759 24 134.463 23.495 132.692 22.878L129.473 21.756L132.23 18.878C135.333 15.639 139.084 15.125 140.46 17.75ZM15.7538 40.338C2.06577 54.062 -0.494234 57.087 0.0717663 58.87C1.54677 63.518 4.74277 61.393 21.4738 44.639C38.2848 27.805 40.1848 24.85 34.6038 24.218C32.5598 23.987 29.1798 26.877 15.7538 40.338ZM37.1228 49.977C27.7928 59.347 26.2978 61.278 27.2248 62.757C29.5718 66.502 31.9188 65.256 42.4508 54.675C50.6818 46.406 52.7208 43.8 52.4508 41.894C51.7348 36.825 48.5418 38.509 37.1228 49.977ZM59.1018 59.011C52.3838 65.769 51.3088 67.295 52.2318 68.761C54.3308 72.094 56.5688 71.23 63.7258 64.327C72.0048 56.34 73.2418 54.463 71.5598 52.436C69.3528 49.777 67.0998 50.966 59.1018 59.011ZM227.624 105.021C228.219 106.132 228.393 107.595 228.01 108.271C226.89 110.253 223.325 114 222.56 114C222.173 114 221.363 112.088 220.761 109.75C219.825 106.12 219.908 105.318 221.33 104.25C223.785 102.407 226.397 102.727 227.624 105.021ZM235.413 134.2C237.345 136.132 236.813 138.434 233.757 141.362L230.901 144.099L229.6 139.455C228.503 135.535 228.519 134.673 229.707 133.921C231.676 132.674 234.001 132.788 235.413 134.2ZM69.8708 147.417L75.6298 149.609L69.4908 156.902L63.3528 164.194L55.4828 156.371C51.1538 152.068 47.6128 148.222 47.6128 147.824C47.6128 147.427 49.0418 145.766 50.7878 144.134L53.9628 141.167L59.0378 143.196C61.8288 144.311 66.7038 146.211 69.8708 147.417ZM99.0738 180.323L102.825 190.146L100.469 192.814C99.1728 194.282 97.6628 195.81 97.1128 196.211C96.1988 196.876 80.6128 182.405 80.6128 180.891C80.6128 179.563 93.9258 168.916 94.6118 169.695C95.0028 170.138 97.0098 174.92 99.0738 180.323ZM182.327 179.844C178.084 184.203 174.613 188.182 174.613 188.685C174.613 190.126 176.859 192 178.586 192C179.452 192 183.744 188.395 188.124 183.989C194.834 177.239 195.917 175.704 194.999 174.239C192.725 170.612 190.242 171.71 182.327 179.844ZM191.239 201.874C182.295 210.846 180.516 213.12 181.073 214.874C182.431 219.151 185.78 217.37 196.381 206.733C206.527 196.552 208.577 192.968 205.031 191.607C204.161 191.273 203.141 191 202.764 191C202.387 191 197.201 195.893 191.239 201.874ZM200.752 223.361C183.941 240.195 182.041 243.15 187.622 243.782C189.666 244.013 193.046 241.123 206.472 227.662C220.16 213.938 222.72 210.913 222.154 209.13C220.679 204.482 217.483 206.607 200.752 223.361Z" fill="#1E3667" style="fill:#1E3667;fill:color(display-p3 0.1176 0.2118 0.4039);fill-opacity:1;"/>
</svg>
