<svg width="13" height="13" viewBox="0 0 13 13" fill="none" xmlns="http://www.w3.org/2000/svg">
<path d="M10.3613 0.222446L7.00997 0.242076C6.92955 0.242636 6.84871 0.260085 6.77212 0.293417C6.69552 0.326749 6.6247 0.375303 6.56372 0.43628C6.50274 0.497257 6.45282 0.569449 6.41684 0.648692C6.38086 0.727935 6.35952 0.812661 6.35407 0.897981C6.34297 1.06873 6.39605 1.23162 6.50171 1.35107C6.60736 1.47053 6.75702 1.53684 6.91798 1.53553L9.99814 1.5144L0.5799 10.9326C0.457395 11.0551 0.382044 11.2203 0.370423 11.3917C0.358802 11.5631 0.411863 11.7268 0.517933 11.8467C0.624004 11.9666 0.774394 12.033 0.936022 12.0311C1.09765 12.0293 1.25727 11.9595 1.37978 11.837L10.8257 2.391L10.5974 5.69539C10.5913 5.78072 10.6012 5.86509 10.6265 5.94364C10.6517 6.02219 10.6919 6.09336 10.7447 6.15305C10.7975 6.21275 10.8619 6.25977 10.9341 6.29142C11.0063 6.32307 11.0849 6.33872 11.1653 6.33746C11.2458 6.3369 11.3266 6.31945 11.4032 6.28612C11.4798 6.25278 11.5506 6.20423 11.6116 6.14325C11.6726 6.08228 11.7225 6.01008 11.7585 5.93084C11.7944 5.8516 11.8158 5.76687 11.8212 5.68155L12.057 2.1396C12.0916 1.62576 11.9324 1.13523 11.6144 0.775767C11.2965 0.416299 10.8458 0.217287 10.3613 0.222446Z" fill="#F1F1F1" style="fill:#F1F1F1;fill:color(display-p3 0.9451 0.9451 0.9451);fill-opacity:1;"/>
</svg>
