<svg width="14" height="12" viewBox="0 0 14 12" fill="none" xmlns="http://www.w3.org/2000/svg">
<path d="M0.324085 3.13866L0.92537 6.43567C0.939887 6.51478 0.971109 6.59136 1.01723 6.661C1.06336 6.73064 1.12348 6.79196 1.19411 6.84142C1.26475 6.89088 1.34452 6.92751 1.4288 6.94918C1.51309 6.97086 1.60024 6.97716 1.68521 6.96771C1.85529 6.94899 2.00649 6.86844 2.10578 6.74364C2.20507 6.61884 2.24439 6.45995 2.21514 6.30166L1.65947 3.27196L12.5701 10.9117C12.712 11.011 12.8877 11.0566 13.0585 11.0382C13.2294 11.0199 13.3813 10.9392 13.481 10.814C13.5807 10.6887 13.6199 10.529 13.5901 10.3702C13.5602 10.2113 13.4637 10.0663 13.3218 9.9669L2.37905 2.30472L5.67288 1.95577C5.75798 1.94697 5.83935 1.9226 5.91232 1.88406C5.98528 1.84552 6.0484 1.79357 6.09801 1.73121C6.14763 1.66885 6.18276 1.59731 6.2014 1.52073C6.22003 1.44414 6.22179 1.36402 6.20658 1.28499C6.19206 1.20588 6.16084 1.1293 6.11471 1.05966C6.06859 0.99002 6.00847 0.9287 5.93783 0.879238C5.86719 0.829776 5.78743 0.793151 5.70314 0.771475C5.61886 0.749799 5.53171 0.743501 5.44674 0.752945L1.91765 1.13577C1.40562 1.19099 0.950192 1.43294 0.651397 1.80849C0.352602 2.18403 0.234878 2.66245 0.324085 3.13866Z" fill="#0F0F0F" style="fill:#0F0F0F;fill:color(display-p3 0.0588 0.0588 0.0588);fill-opacity:1;"/>
</svg>
