<svg width="12" height="12" viewBox="0 0 12 12" fill="none" xmlns="http://www.w3.org/2000/svg">
<path d="M10.064 0.0528181L6.77181 0.119196C6.69281 0.120871 6.61413 0.138175 6.54031 0.170109C6.46649 0.202044 6.399 0.247977 6.34171 0.30526C6.28443 0.362542 6.2385 0.430039 6.20656 0.503859C6.17463 0.577678 6.15732 0.656358 6.15565 0.735359C6.15212 0.893464 6.21131 1.04338 6.32028 1.15235C6.42926 1.26133 6.57917 1.32052 6.73728 1.31699L9.76291 1.25313L0.915324 10.1007C0.800242 10.2158 0.733333 10.3696 0.729317 10.5284C0.7253 10.6871 0.784506 10.8377 0.893908 10.9471C1.00331 11.0565 1.15395 11.1157 1.31268 11.1117C1.47142 11.1077 1.62525 11.0408 1.74033 10.9257L10.614 2.05209L10.5323 5.11201C10.53 5.19103 10.5433 5.26893 10.5716 5.34123C10.5998 5.41353 10.6424 5.47879 10.6968 5.53324C10.7513 5.5877 10.8165 5.63027 10.8888 5.65851C10.9611 5.68675 11.039 5.70009 11.1181 5.69777C11.1971 5.69609 11.2757 5.67879 11.3496 5.64685C11.4234 5.61492 11.4909 5.56898 11.5482 5.5117C11.6054 5.45442 11.6514 5.38692 11.6833 5.3131C11.7152 5.23928 11.7325 5.1606 11.7342 5.0816L11.813 1.80183C11.8247 1.32602 11.6471 0.874563 11.3192 0.546622C10.9912 0.218681 10.5398 0.0410755 10.064 0.0528181Z" fill="#0F0F0F" style="fill:#0F0F0F;fill:color(display-p3 0.0588 0.0588 0.0588);fill-opacity:1;"/>
</svg>
