<svg width="208" height="132" viewBox="0 0 208 132" fill="none" xmlns="http://www.w3.org/2000/svg">
<path fill-rule="evenodd" clip-rule="evenodd" d="M107.875 1.00467C107.194 1.68567 106.638 3.05167 106.638 4.04167C106.638 5.73867 104.735 5.84167 73.2602 5.84167C44.9382 5.84167 39.6962 6.06667 38.6492 7.32867C37.9702 8.14667 37.6752 9.49667 37.9952 10.3287C38.4972 11.6387 43.1522 11.8417 72.6072 11.8417H106.638V15.2757C106.638 18.2777 106.293 18.7487 103.888 19.0257C101.294 19.3237 101.121 19.6607 100.842 24.9477L100.547 30.5537L91.2792 31.1067C80.9602 31.7217 76.2402 33.3077 70.2152 38.1837C64.0772 43.1517 63.7822 43.2577 54.6382 43.8197C46.3772 44.3267 46.1382 44.4117 46.1382 46.8417C46.1382 49.2317 46.4352 49.3547 52.8642 49.6367C61.5142 50.0167 66.5112 48.6237 71.8462 44.3457C81.0972 36.9267 78.4752 37.3417 116.138 37.3417C154.979 37.3417 152.831 36.9147 163.882 46.8347C169.806 52.1527 172.903 52.9547 173.428 49.3057C173.634 47.8757 171.747 45.5827 166.928 41.4077C157.802 33.5027 153.841 31.8927 141.696 31.1527L131.729 30.5447L131.433 24.9437C131.155 19.6607 130.981 19.3237 128.388 19.0257C125.986 18.7487 125.638 18.2767 125.638 15.2887V11.8677L159.888 11.6047L194.138 11.3417V8.84167V6.34167L159.953 6.07867L125.768 5.81567L125.453 3.07867C125.142 0.377672 125.033 0.337673 117.125 0.0546735C111.749 -0.137327 108.704 0.17567 107.875 1.00467ZM119.638 12.3417V18.8417H116.138H112.638V12.3417V5.84167H116.138H119.638V12.3417ZM125.638 27.8417V30.8417H116.138H106.638V27.8417V24.8417H116.138H125.638V27.8417ZM1.1922 32.1787C-0.556801 33.4577 -0.496801 33.9317 2.6062 43.2447L5.8472 52.9737L2.6802 62.5237C0.938199 67.7767 -0.247801 72.6967 0.0441991 73.4577C0.438199 74.4837 2.7372 74.8417 8.9212 74.8417H17.2682L19.0312 71.0917C20.0012 69.0297 21.4032 66.3917 22.1482 65.2317L23.5012 63.1207L37.8202 67.2967C45.6952 69.5947 54.1142 72.4987 56.5302 73.7507C62.2802 76.7317 69.8162 83.8527 74.9192 91.1267C82.2872 101.631 95.0312 109.504 108.888 112.113L114.638 113.195V119.519V125.842H104.138H93.6382V123.311C93.6382 120.365 91.2682 119.074 89.1252 120.853C87.3412 122.333 87.1472 128.951 88.8382 130.642C89.7392 131.543 102.26 131.84 139.088 131.832L188.138 131.822L193.138 129.474C199.048 126.698 201.937 123.784 201.055 121.487C200.16 119.153 198.206 119.437 193.443 122.592C189.754 125.036 188.198 125.38 179.465 125.686L169.638 126.029V119.436V112.842L178.388 112.836C190.217 112.829 193.956 111.619 199.602 105.974C204.594 100.981 207.638 94.1847 207.638 88.0297C207.638 80.7897 205.525 76.6087 198.197 69.3417C187.033 58.2717 181.754 54.2787 179.862 55.4727C178.979 56.0287 178.093 56.9767 177.892 57.5787C177.692 58.1797 182.065 62.6477 187.61 67.5067C193.933 73.0477 198.428 77.8577 199.665 80.4077C203.539 88.3907 206.074 87.8397 165.388 87.8567C145.451 87.8657 128.531 88.2567 127.79 88.7267C127.048 89.1967 126.604 90.4277 126.803 91.4617C127.148 93.2557 128.852 93.3537 163.901 93.6037C184.107 93.7487 200.638 94.2067 200.638 94.6217C200.638 96.9027 195.125 102.912 191.359 104.735C187.166 106.765 185.617 106.842 149.072 106.83C108.813 106.818 105.812 106.532 96.6382 101.85C94.1632 100.587 90.5962 98.3807 88.7112 96.9477L85.2852 94.3417L101.699 93.8417C116.754 93.3827 118.144 93.1857 118.474 91.4617C118.673 90.4277 118.228 89.1967 117.486 88.7267C116.745 88.2567 107.964 87.8657 97.9732 87.8567L79.8082 87.8417L76.2312 82.9687C71.7102 76.8087 65.3582 71.5877 57.9382 67.9307C52.3542 65.1787 24.8592 56.8417 21.3672 56.8417C20.2922 56.8417 18.5532 59.0487 16.6382 62.8417C13.8332 68.3977 13.3592 68.8417 10.2232 68.8417H6.8372L9.2372 61.7457C12.1442 53.1547 12.1562 52.6607 9.6382 45.3417C7.0002 37.6757 7.0772 36.8417 10.4232 36.8417C12.8582 36.8417 13.6152 37.6657 16.4332 43.3807L19.6582 49.9197L28.3982 49.6307C36.9772 49.3467 37.1382 49.2957 37.1382 46.8417C37.1382 44.4637 36.8012 44.3177 30.1992 43.8417L23.2602 43.3417L20.6292 38.0117C19.1822 35.0807 17.3552 32.2747 16.5682 31.7777C14.3502 30.3737 3.2652 30.6627 1.1922 32.1787ZM88.1382 44.4597C87.0382 44.7417 84.6752 45.4277 82.8882 45.9847L79.6382 46.9967V59.1847C79.6382 69.1257 79.9792 72.0157 81.4902 74.8577C87.2472 85.6917 103.01 85.6827 108.806 74.8417C110.39 71.8807 110.636 69.4957 110.408 59.3537L110.138 47.3647L107.332 46.0217C104.399 44.6177 91.5892 43.5747 88.1382 44.4597ZM120.888 44.5037C119.955 44.8807 119.638 49.4207 119.638 62.3897C119.638 78.5507 119.774 79.8437 121.572 80.8067C122.786 81.4567 135.048 81.8417 154.501 81.8417C181.396 81.8417 185.704 81.6327 187.073 80.2637C187.983 79.3547 188.33 78.1267 187.894 77.3647C186.205 74.4127 152.699 46.0587 149.638 44.9917C146.43 43.8737 123.418 43.4827 120.888 44.5037ZM101.513 50.4667C104.143 50.9927 104.638 51.5467 104.638 53.9667V56.8417H95.1382H85.6382V53.9117C85.6382 51.6677 86.1652 50.8797 87.8882 50.5477C91.5732 49.8377 98.1722 49.7987 101.513 50.4667ZM141.638 62.8417V75.8417H133.638H125.638V62.8417V49.8417H133.638H141.638V62.8417ZM163.179 63.0917L177.132 75.3417L163.686 75.6217C156.29 75.7767 149.654 75.6777 148.938 75.4037C147.971 75.0327 147.638 71.8247 147.638 62.8727C147.638 56.2557 147.995 50.8417 148.432 50.8417C148.868 50.8417 155.505 56.3547 163.179 63.0917ZM104.638 66.9187C104.638 70.0917 103.99 71.6437 101.715 73.9187C95.3542 80.2797 85.6382 75.9567 85.6382 66.7647V62.8417H95.1382H104.638V66.9187ZM163.638 119.342V125.842H142.138H120.638V119.342V112.842H142.138H163.638V119.342Z" fill="#1E3667" style="fill:#1E3667;fill:color(display-p3 0.1176 0.2118 0.4039);fill-opacity:1;"/>
</svg>
