<svg width="34" height="34" viewBox="0 0 34 34" fill="none" xmlns="http://www.w3.org/2000/svg">
<path d="M22.4598 12.5432L18.003 17L22.4598 21.4568C22.7361 21.7331 22.7361 22.1822 22.4598 22.4584C22.321 22.5972 22.1397 22.6652 21.9583 22.6652C21.777 22.6652 21.5957 22.5958 21.4568 22.4584L17 18.0016L12.5432 22.4584C12.4043 22.5972 12.223 22.6652 12.0417 22.6652C11.8603 22.6652 11.679 22.5958 11.5402 22.4584C11.2639 22.1822 11.2639 21.7331 11.5402 21.4568L15.997 17L11.5402 12.5432C11.2639 12.2669 11.2639 11.8178 11.5402 11.5416C11.8164 11.2653 12.2655 11.2653 12.5417 11.5416L16.9986 15.9984L21.4554 11.5416C21.7317 11.2653 22.1807 11.2653 22.457 11.5416C22.7332 11.8178 22.7332 12.2669 22.457 12.5432L22.4598 12.5432ZM34 17C34 26.3741 26.3741 34 17 34C7.62592 34 -3.36754e-09 26.3741 -2.17062e-09 17C-9.73704e-10 7.62592 7.62592 9.73704e-10 17 2.17062e-09C26.3741 3.36754e-09 34 7.62592 34 17ZM32.5833 17C32.5833 8.40792 25.5921 1.41667 17 1.41667C8.40792 1.41667 1.41667 8.40792 1.41667 17C1.41667 25.5921 8.40792 32.5833 17 32.5833C25.5921 32.5833 32.5833 25.5921 32.5833 17Z" fill="#1E3667" style="fill:#1E3667;fill:color(display-p3 0.1176 0.2118 0.4039);fill-opacity:1;"/>
</svg>
