<svg width="13" height="13" viewBox="0 0 13 13" fill="none" xmlns="http://www.w3.org/2000/svg">
<g clip-path="url(#clip0_317_3108)">
<path d="M7.64905 6.50023L12.7622 1.38765C13.0796 1.07026 13.0796 0.55566 12.7622 0.238291C12.4448 -0.0791047 11.9302 -0.0791047 11.6128 0.238291L6.50023 5.3514L1.38765 0.238291C1.07026 -0.0791047 0.55566 -0.0791047 0.238291 0.238291C-0.0790793 0.555686 -0.0791047 1.07028 0.238291 1.38765L5.3514 6.50023L0.238291 11.6128C-0.0791047 11.9302 -0.0791047 12.4448 0.238291 12.7622C0.555686 13.0796 1.07028 13.0796 1.38765 12.7622L6.50023 7.64905L11.6128 12.7622C11.9302 13.0796 12.4448 13.0796 12.7622 12.7622C13.0796 12.4448 13.0796 11.9302 12.7622 11.6128L7.64905 6.50023Z" fill="#F1F1F1" style="fill:#F1F1F1;fill:color(display-p3 0.9451 0.9451 0.9451);fill-opacity:1;"/>
</g>
<defs>
<clipPath id="clip0_317_3108">
<rect width="13" height="13" fill="white" style="fill:white;fill-opacity:1;"/>
</clipPath>
</defs>
</svg>
