<svg width="16" height="15" viewBox="0 0 16 15" fill="none" xmlns="http://www.w3.org/2000/svg">
<path d="M12.6667 0.5H3.33333C2.4496 0.50101 1.60237 0.836561 0.97748 1.43305C0.352588 2.02954 0.00105857 2.83826 0 3.68182L0 11.3182C0.00105857 12.1617 0.352588 12.9705 0.97748 13.567C1.60237 14.1634 2.4496 14.499 3.33333 14.5H12.6667C13.5504 14.499 14.3976 14.1634 15.0225 13.567C15.6474 12.9705 15.9989 12.1617 16 11.3182V3.68182C15.9989 2.83826 15.6474 2.02954 15.0225 1.43305C14.3976 0.836561 13.5504 0.50101 12.6667 0.5ZM3.33333 1.77273H12.6667C13.0659 1.77348 13.4557 1.88824 13.786 2.10224C14.1163 2.31624 14.3719 2.61969 14.52 2.97355L9.41467 7.84745C9.03895 8.20465 8.53028 8.40521 8 8.40521C7.46972 8.40521 6.96105 8.20465 6.58533 7.84745L1.48 2.97355C1.6281 2.61969 1.88374 2.31624 2.21403 2.10224C2.54432 1.88824 2.93414 1.77348 3.33333 1.77273ZM12.6667 13.2273H3.33333C2.8029 13.2273 2.29419 13.0261 1.91912 12.6681C1.54405 12.3101 1.33333 11.8245 1.33333 11.3182V4.63636L5.64267 8.74727C6.26842 9.34307 7.11617 9.67766 8 9.67766C8.88383 9.67766 9.73158 9.34307 10.3573 8.74727L14.6667 4.63636V11.3182C14.6667 11.8245 14.456 12.3101 14.0809 12.6681C13.7058 13.0261 13.1971 13.2273 12.6667 13.2273Z" fill="#1E3667" style="fill:#1E3667;fill:color(display-p3 0.1176 0.2118 0.4039);fill-opacity:1;"/>
</svg>
