<svg width="69" height="64" viewBox="0 0 69 64" fill="none" xmlns="http://www.w3.org/2000/svg">
<path d="M54.5452 0.949524H14.8786C11.1227 0.954071 7.52199 2.46405 4.8662 5.14824C2.21041 7.83244 0.716413 11.4717 0.711914 15.2677L0.711914 49.6313C0.716413 53.4274 2.21041 57.0666 4.8662 59.7508C7.52199 62.435 11.1227 63.945 14.8786 63.9495H54.5452C58.3011 63.945 61.9018 62.435 64.5576 59.7508C67.2134 57.0666 68.7074 53.4274 68.7119 49.6313V15.2677C68.7074 11.4717 67.2134 7.83244 64.5576 5.14824C61.9018 2.46405 58.3011 0.954071 54.5452 0.949524ZM14.8786 6.6768H54.5452C56.2418 6.68017 57.8986 7.19659 59.3023 8.1596C60.706 9.12261 61.7925 10.4881 62.4219 12.0805L40.7242 34.0131C39.1275 35.6205 36.9656 36.523 34.7119 36.523C32.4582 36.523 30.2964 35.6205 28.6996 34.0131L7.00191 12.0805C7.63134 10.4881 8.71782 9.12261 10.1215 8.1596C11.5253 7.19659 13.182 6.68017 14.8786 6.6768ZM54.5452 58.2223H14.8786C12.6242 58.2223 10.4622 57.3171 8.86817 55.706C7.27411 54.0949 6.37858 51.9098 6.37858 49.6313V19.5632L24.6932 38.0623C27.3527 40.7433 30.9556 42.249 34.7119 42.249C38.4682 42.249 42.0711 40.7433 44.7306 38.0623L63.0452 19.5632V49.6313C63.0452 51.9098 62.1497 54.0949 60.5557 55.706C58.9616 57.3171 56.7996 58.2223 54.5452 58.2223Z" fill="white" style="fill:white;fill-opacity:1;"/>
</svg>
