<svg width="337" height="183" viewBox="0 0 337 183" fill="none" xmlns="http://www.w3.org/2000/svg">
<path fill-rule="evenodd" clip-rule="evenodd" d="M61.2663 2.411C58.5523 4.743 58.4492 5.188 58.1222 15.911L57.7833 27H45.4433C35.5583 27 32.7902 27.313 31.5312 28.571C29.5243 30.578 29.5243 33.422 31.5312 35.429C32.8993 36.796 37.5523 37 67.3763 37C100.55 37 101.709 36.935 103.487 34.97C104.943 33.362 105.126 32.374 104.369 30.22L103.414 27.5L86.1872 27.226L68.9603 26.953V18.476V10H155.901C203.719 10 243.068 10.365 243.344 10.812C243.62 11.258 243.574 42.308 243.242 79.812L242.639 148H204.436H166.232L164.44 143.309C162.251 137.576 155.947 130.545 150.505 127.766C144.869 124.888 134.655 124.276 128.173 126.429C119.873 129.186 112.191 137.36 109.544 146.25C109.07 147.841 107.204 148 88.9912 148H68.9603V133V118H77.7603C83.2713 118 87.0083 117.552 87.7603 116.8C89.3073 115.253 89.3073 110.747 87.7603 109.2C86.8713 108.311 77.1682 108 50.2952 108C15.4652 108 13.9892 108.077 12.9952 109.934C11.5432 112.647 11.7053 114.602 13.5312 116.429C14.8622 117.759 18.3843 118 36.5312 118H57.9603V136.277C57.9603 151.202 58.2463 154.963 59.5173 156.777C61.0523 158.969 61.4072 159 85.0482 159C107.004 159 109.069 159.147 109.576 160.75C111.36 166.39 113.641 170.25 117.314 173.846C132.042 188.262 156.248 183.32 164.137 164.286L166.328 159H213.909H261.491L263.239 163.922C267.617 176.25 281.83 184.205 295.152 181.783C301.384 180.651 304.706 179.04 309.511 174.821C313.082 171.686 317.96 163.436 317.96 160.533C317.96 159.311 319.294 159 324.537 159C330.473 159 331.399 158.715 334.037 156.077L336.96 153.154V133.703C336.96 119.316 336.585 113.187 335.518 110.164C334.355 106.867 309.126 60.679 303.832 52.155C303.078 50.939 300.63 49.057 298.394 47.972C294.76 46.209 292.194 46 274.201 46H254.074L253.767 25.411L253.46 4.823L250.654 2.411L247.848 0H155.96H64.0723L61.2663 2.411ZM59.9603 50C58.1273 51.833 57.9603 53.333 57.9603 68V84H49.4953C42.1503 84 40.8933 84.256 39.9953 85.934C38.5433 88.647 38.7053 90.602 40.5312 92.429C41.9173 93.814 47.8703 94 90.8763 94C136.858 94 139.745 93.895 141.305 92.171C143.456 89.794 143.4 87.709 141.131 85.655C139.503 84.181 135.455 84 104.131 84H68.9603V70.125C68.9603 53.193 68.5042 50.569 65.3112 49.114C62.1652 47.681 62.3023 47.658 59.9603 50ZM1.16025 57.2C-0.38675 58.747 -0.38675 63.253 1.16025 64.8C2.85725 66.497 43.0633 66.497 44.7603 64.8C46.3073 63.253 46.3073 58.747 44.7603 57.2C43.0633 55.503 2.85725 55.503 1.16025 57.2ZM309.091 82.643C316.994 96.746 324.229 110.359 325.168 112.893C326.495 116.47 326.886 120.911 326.918 132.75L326.96 148H322.46C318.845 148 317.958 147.656 317.951 146.25C317.934 143.175 312.195 134.354 308.101 131.112C296.727 122.103 280.066 123.066 269.829 133.324C266.506 136.654 261.96 144.548 261.96 146.989C261.96 147.545 260.16 148 257.96 148H253.96V102.5V57H274.341H294.721L309.091 82.643ZM147.83 138.783C153.167 143.102 154.941 146.044 155.609 151.681C156.417 158.503 153.392 165.024 147.662 168.816C142.075 172.513 132.976 172.639 127.797 169.09C118.135 162.47 116.375 150.602 123.755 141.832C129.902 134.526 140.857 133.139 147.83 138.783ZM296.728 136.548C304.497 139.794 307.962 145.087 307.956 153.7C307.944 172.869 282.634 179.002 273.932 161.945C266.326 147.036 281.465 130.17 296.728 136.548Z" fill="#1E3667" style="fill:#1E3667;fill:color(display-p3 0.1176 0.2118 0.4039);fill-opacity:1;"/>
</svg>
