<svg width="31" height="31" viewBox="0 0 31 31" fill="none" xmlns="http://www.w3.org/2000/svg">
<path d="M16.8604 2.17593C16.8604 1.84387 16.9923 1.5254 17.2271 1.29059C17.4619 1.05579 17.7804 0.923874 18.1124 0.923874C21.4319 0.92752 24.6144 2.24782 26.9616 4.59509C29.3089 6.94236 30.6292 10.1249 30.6328 13.4444C30.6328 13.7765 30.5009 14.095 30.2661 14.3298C30.0313 14.5646 29.7128 14.6965 29.3808 14.6965C29.0487 14.6965 28.7303 14.5646 28.4954 14.3298C28.2606 14.095 28.1287 13.7765 28.1287 13.4444C28.1258 10.7888 27.0695 8.24284 25.1917 6.36503C23.314 4.48723 20.768 3.43097 18.1124 3.42799C17.7804 3.42799 17.4619 3.29608 17.2271 3.06127C16.9923 2.82646 16.8604 2.508 16.8604 2.17593ZM18.1124 8.43621C19.4407 8.43621 20.7145 8.96387 21.6537 9.90309C22.5929 10.8423 23.1206 12.1162 23.1206 13.4444C23.1206 13.7765 23.2525 14.095 23.4873 14.3298C23.7221 14.5646 24.0406 14.6965 24.3726 14.6965C24.7047 14.6965 25.0231 14.5646 25.2579 14.3298C25.4927 14.095 25.6247 13.7765 25.6247 13.4444C25.6227 11.4527 24.8306 9.54302 23.4222 8.13461C22.0138 6.72621 20.1042 5.93409 18.1124 5.9321C17.7804 5.9321 17.4619 6.06401 17.2271 6.29882C16.9923 6.53363 16.8604 6.85209 16.8604 7.18416C16.8604 7.51622 16.9923 7.83469 17.2271 8.0695C17.4619 8.3043 17.7804 8.43621 18.1124 8.43621ZM29.4972 21.8821C30.2228 22.6096 30.6302 23.5953 30.6302 24.6228C30.6302 25.6503 30.2228 26.636 29.4972 27.3636L28.3579 28.677C18.1037 38.4943 -6.84947 13.5471 2.81627 3.26021L4.25612 2.00816C4.98451 1.30284 5.96131 0.912667 6.97517 0.92204C7.98904 0.931413 8.95845 1.33958 9.67369 2.05824C9.7125 2.09705 12.0325 5.11075 12.0325 5.11075C12.7209 5.83397 13.1042 6.79468 13.1025 7.79316C13.1009 8.79164 12.7145 9.75109 12.0238 10.4721L10.5739 12.2951C11.3763 14.2446 12.556 16.0165 14.0452 17.5087C15.5344 19.001 17.3038 20.1843 19.2518 20.9906L21.086 19.5319C21.8071 18.8417 22.7663 18.4558 23.7645 18.4544C24.7627 18.453 25.723 18.8362 26.446 19.5244C26.446 19.5244 29.4584 21.8432 29.4972 21.8821ZM27.7744 23.7025C27.7744 23.7025 24.7783 21.3975 24.7395 21.3587C24.4815 21.1029 24.133 20.9594 23.7698 20.9594C23.4065 20.9594 23.058 21.1029 22.8001 21.3587C22.7663 21.3937 20.2409 23.4058 20.2409 23.4058C20.0707 23.5413 19.8682 23.6301 19.6532 23.6634C19.4383 23.6968 19.2184 23.6736 19.0151 23.5961C16.4916 22.6565 14.1995 21.1856 12.294 19.2829C10.3885 17.3802 8.9142 15.0902 7.97091 12.568C7.88728 12.362 7.86001 12.1374 7.89192 11.9174C7.92382 11.6973 8.01375 11.4897 8.15246 11.3159C8.15246 11.3159 10.1645 8.78929 10.1983 8.75674C10.454 8.4988 10.5975 8.15027 10.5975 7.78702C10.5975 7.42378 10.454 7.07525 10.1983 6.81731C10.1595 6.77974 7.85448 3.78107 7.85448 3.78107C7.59267 3.54632 7.251 3.4206 6.89948 3.42967C6.54796 3.43875 6.21323 3.58194 5.9639 3.8299L4.52405 5.08195C-2.53995 13.5759 19.084 34.0007 26.5274 26.9667L27.668 25.652C27.9353 25.4044 28.0958 25.0626 28.1157 24.6988C28.1355 24.335 28.0132 23.9777 27.7744 23.7025Z" fill="#F1F1F1" style="fill:#F1F1F1;fill:color(display-p3 0.9451 0.9451 0.9451);fill-opacity:1;"/>
</svg>
