<svg width="67" height="67" viewBox="0 0 67 67" fill="none" xmlns="http://www.w3.org/2000/svg">
<path d="M36.4126 3.20845C36.4126 2.4779 36.7028 1.77728 37.2194 1.2607C37.7359 0.744131 38.4365 0.453923 39.1671 0.453923C46.47 0.461943 53.4714 3.3666 58.6354 8.5306C63.7993 13.6946 66.7039 20.6962 66.7119 27.9992C66.7119 28.7297 66.4217 29.4303 65.9051 29.9469C65.3886 30.4635 64.688 30.7537 63.9574 30.7537C63.2269 30.7537 62.5263 30.4635 62.0097 29.9469C61.4931 29.4303 61.2029 28.7297 61.2029 27.9992C61.1964 22.1568 58.8726 16.5556 54.7415 12.4245C50.6104 8.2933 45.0093 5.96953 39.1671 5.96297C38.4365 5.96297 37.7359 5.67276 37.2194 5.15619C36.7028 4.63962 36.4126 3.93899 36.4126 3.20845ZM39.1671 16.9811C42.0892 16.9811 44.8917 18.1419 46.9579 20.2082C49.0242 22.2745 50.185 25.077 50.185 27.9992C50.185 28.7297 50.4752 29.4303 50.9918 29.9469C51.5083 30.4635 52.209 30.7537 52.9395 30.7537C53.67 30.7537 54.3706 30.4635 54.8872 29.9469C55.4038 29.4303 55.694 28.7297 55.694 27.9992C55.6896 23.6172 53.947 19.416 50.8485 16.3175C47.7501 13.2191 43.5489 11.4764 39.1671 11.472C38.4365 11.472 37.7359 11.7622 37.2194 12.2788C36.7028 12.7954 36.4126 13.496 36.4126 14.2265C36.4126 14.9571 36.7028 15.6577 37.2194 16.1743C37.7359 16.6909 38.4365 16.9811 39.1671 16.9811ZM64.2136 46.5619C65.8099 48.1626 66.7062 50.331 66.7062 52.5916C66.7062 54.8522 65.8099 57.0205 64.2136 58.6212L61.707 61.5107C39.1478 83.1089 -15.7491 28.225 5.51552 5.59387L8.68318 2.83934C10.2857 1.28765 12.4346 0.429267 14.6651 0.449887C16.8956 0.470507 19.0283 1.36848 20.6018 2.94952C20.6872 3.03491 25.7913 9.66505 25.7913 9.66505C27.3058 11.2561 28.1489 13.3697 28.1453 15.5664C28.1417 17.763 27.2917 19.8738 25.772 21.4599L22.5823 25.4705C24.3475 29.7596 26.9428 33.6576 30.2191 36.9406C33.4955 40.2236 37.3882 42.8268 41.6736 44.6007L45.709 41.3917C47.2953 39.8731 49.4057 39.0241 51.6016 39.0211C53.7976 39.018 55.9103 39.8611 57.5009 41.3751C57.5009 41.3751 64.1282 46.4765 64.2136 46.5619ZM60.4234 50.567C60.4234 50.567 53.8319 45.4959 53.7466 45.4105C53.1791 44.8479 52.4123 44.5322 51.6132 44.5322C50.8141 44.5322 50.0473 44.8479 49.4799 45.4105C49.4055 45.4876 43.8497 49.9142 43.8497 49.9142C43.4753 50.2122 43.0297 50.4075 42.5569 50.4809C42.084 50.5544 41.6002 50.5033 41.153 50.3329C35.6013 48.2658 30.5586 45.0297 26.3665 40.8437C22.1745 36.6578 18.931 31.6198 16.8557 26.071C16.6717 25.6178 16.6117 25.1237 16.6819 24.6396C16.7521 24.1555 16.95 23.6988 17.2551 23.3165C17.2551 23.3165 21.6816 17.7578 21.756 17.6862C22.3186 17.1188 22.6343 16.352 22.6343 15.5529C22.6343 14.7537 22.3186 13.9869 21.756 13.4195C21.6706 13.3368 16.5996 6.73975 16.5996 6.73975C16.0236 6.22329 15.2719 5.94671 14.4986 5.96668C13.7252 5.98666 12.9888 6.30168 12.4403 6.84717L9.27264 9.6017C-6.26816 28.2884 41.3045 73.223 57.68 57.748L60.1893 54.8558C60.7773 54.3111 61.1305 53.5591 61.1742 52.7588C61.2179 51.9584 60.9487 51.1724 60.4234 50.567Z" fill="white" style="fill:white;fill-opacity:1;"/>
</svg>
