<svg width="16" height="17" viewBox="0 0 16 17" fill="none" xmlns="http://www.w3.org/2000/svg">
<path d="M8.65471 1.16883C8.65471 0.991728 8.72506 0.82188 8.85029 0.69665C8.97552 0.57142 9.14536 0.501066 9.32246 0.501066C11.0929 0.503011 12.7902 1.20717 14.042 2.45905C15.2939 3.71093 15.9981 5.40828 16 7.1787C16 7.3558 15.9296 7.52565 15.8044 7.65088C15.6792 7.77611 15.5093 7.84647 15.3322 7.84647C15.1551 7.84647 14.9853 7.77611 14.8601 7.65088C14.7348 7.52565 14.6645 7.3558 14.6645 7.1787C14.6629 5.76237 14.0996 4.40451 13.0981 3.40302C12.0966 2.40152 10.7388 1.83818 9.32246 1.83659C9.14536 1.83659 8.97552 1.76624 8.85029 1.64101C8.72506 1.51578 8.65471 1.34593 8.65471 1.16883ZM9.32246 4.50765C10.0309 4.50765 10.7102 4.78906 11.2112 5.28998C11.7121 5.7909 11.9935 6.47029 11.9935 7.1787C11.9935 7.3558 12.0638 7.52565 12.1891 7.65088C12.3143 7.77611 12.4841 7.84647 12.6612 7.84647C12.8383 7.84647 13.0082 7.77611 13.1334 7.65088C13.2586 7.52565 13.329 7.3558 13.329 7.1787C13.3279 6.11642 12.9055 5.09794 12.1543 4.34679C11.4032 3.59564 10.3847 3.17318 9.32246 3.17212C9.14536 3.17212 8.97552 3.24247 8.85029 3.3677C8.72506 3.49293 8.65471 3.66278 8.65471 3.83988C8.65471 4.01699 8.72506 4.18683 8.85029 4.31206C8.97552 4.43729 9.14536 4.50765 9.32246 4.50765ZM15.3943 11.6788C15.7813 12.0668 15.9986 12.5925 15.9986 13.1405C15.9986 13.6885 15.7813 14.2142 15.3943 14.6022L14.7867 15.3027C9.31779 20.5386 -3.99055 7.23346 1.16451 1.74711L1.93243 1.07935C2.32091 0.703183 2.84186 0.495089 3.38259 0.500088C3.92332 0.505087 4.44034 0.722776 4.8218 1.10606C4.8425 1.12676 6.07985 2.73407 6.07985 2.73407C6.447 3.11979 6.65138 3.63216 6.65051 4.16469C6.64964 4.69721 6.44358 5.20891 6.07517 5.59343L5.30192 6.56569C5.72984 7.60548 6.35901 8.55045 7.15327 9.34633C7.94753 10.1422 8.89122 10.7733 9.93012 11.2033L10.9084 10.4254C11.2929 10.0572 11.8045 9.85142 12.3369 9.85068C12.8693 9.84993 13.3814 10.0543 13.767 10.4214C13.767 10.4214 15.3736 11.6581 15.3943 11.6788ZM14.4755 12.6497C14.4755 12.6497 12.8776 11.4203 12.8569 11.3996C12.7193 11.2632 12.5334 11.1867 12.3397 11.1867C12.146 11.1867 11.9601 11.2632 11.8225 11.3996C11.8045 11.4183 10.4576 12.4914 10.4576 12.4914C10.3669 12.5637 10.2589 12.611 10.1442 12.6288C10.0296 12.6466 9.91231 12.6343 9.80391 12.5929C8.45803 12.0918 7.23555 11.3073 6.2193 10.2925C5.20304 9.27776 4.41674 8.05643 3.91365 6.71127C3.86905 6.60139 3.8545 6.48162 3.87152 6.36426C3.88854 6.2469 3.9365 6.13619 4.01048 6.0435C4.01048 6.0435 5.08356 4.69596 5.10159 4.6786C5.23799 4.54103 5.31452 4.35514 5.31452 4.16141C5.31452 3.96768 5.23799 3.7818 5.10159 3.64423C5.08089 3.6242 3.85155 2.0249 3.85155 2.0249C3.71193 1.8997 3.5297 1.83265 3.34222 1.83749C3.15475 1.84233 2.97622 1.9187 2.84325 2.05095L2.07533 2.71871C-1.69214 7.24882 9.84064 18.142 13.8104 14.3905L14.4188 13.6894C14.5613 13.5574 14.6469 13.3751 14.6575 13.181C14.6681 12.987 14.6028 12.7965 14.4755 12.6497Z" fill="#1E3667" style="fill:#1E3667;fill:color(display-p3 0.1176 0.2118 0.4039);fill-opacity:1;"/>
</svg>
