<svg width="265" height="269" viewBox="0 0 265 269" fill="none" xmlns="http://www.w3.org/2000/svg">
<path fill-rule="evenodd" clip-rule="evenodd" d="M118.342 2.392C115.84 4.544 115.522 5.547 115.177 12.392L114.792 20H100.825H86.8573L83.9343 22.923C81.1663 25.692 81.0113 26.292 81.0113 34.276V42.706L71.4883 43.274C64.8253 43.672 61.0073 44.402 58.7743 45.707C52.6393 49.289 52.1693 51.133 47.8023 88.74C45.5823 107.858 43.6513 123.633 43.5113 123.795C43.3703 123.957 36.3383 126.988 27.8833 130.531C11.3683 137.451 8.01129 139.939 8.01129 145.26C8.01129 147.103 16.1313 167.681 27.5803 194.853C42.6193 230.547 46.8433 241.487 45.8303 242.119C41.0683 245.089 28.3943 244.322 19.1253 240.504C8.55029 236.148 -0.0317135 236.089 0.0262865 240.372C0.0602865 242.836 1.85029 244.021 7.01629 245.001C9.98729 245.564 15.3633 247.238 18.9643 248.72C24.3923 250.955 27.0493 251.418 34.5113 251.432C42.3083 251.447 44.6093 251.018 51.7293 248.224C63.2253 243.714 71.7283 243.712 82.6853 248.219C89.6723 251.092 91.5303 251.432 100.011 251.383C108.298 251.335 110.504 250.924 117.287 248.164C128.211 243.719 136.859 243.727 147.735 248.193C154.582 251.004 156.645 251.388 165.011 251.406C173.444 251.425 175.39 251.066 182.337 248.214C193.297 243.713 201.803 243.716 213.293 248.224C220.413 251.018 222.714 251.447 230.511 251.432C237.973 251.418 240.63 250.955 246.058 248.72C249.659 247.238 255.035 245.564 258.006 245.001C263.172 244.021 264.962 242.836 264.996 240.372C265.054 236.076 256.424 236.149 245.897 240.533C242.269 242.043 236.704 243.414 233.011 243.707C226.544 244.22 218.011 242.711 218.011 241.055C218.011 240.577 219.291 237.332 220.855 233.843C232.339 208.233 257.011 147.835 257.011 145.333C257.011 140.204 253.875 137.564 241.772 132.507C235.578 129.92 228.442 126.921 225.912 125.843L221.313 123.884L219.596 109.215C218.652 101.147 217.403 93.973 216.822 93.273C216.241 92.573 214.937 92 213.924 92C210.514 92 210.069 94.963 211.608 107.444C212.41 113.952 212.855 119.49 212.595 119.749C212.336 120.008 194.505 112.971 172.97 104.11C151.435 95.25 133.228 88 132.511 88C131.794 88 113.587 95.25 92.0523 104.11C70.5173 112.971 52.6993 120.021 52.4553 119.777C51.8333 119.156 59.1113 58.003 60.1363 55.232C60.5983 53.985 62.1623 52.513 63.6123 51.962C65.3053 51.318 90.5073 51.056 134.094 51.23C195.493 51.474 202.097 51.656 203.584 53.145C204.684 54.245 205.686 58.383 206.609 65.645C207.369 71.615 208.216 77.463 208.492 78.64C209.37 82.384 214.329 82.725 215.473 79.12C215.769 78.187 215.352 72.11 214.546 65.615C212.251 47.117 209.535 44.229 193.534 43.274L184.011 42.706V34.276C184.011 26.292 183.856 25.692 181.088 22.923L178.165 20H164.232H150.3L149.714 12.25C149.205 5.517 148.786 4.205 146.514 2.25C144.134 0.201 142.88 0 132.511 0C121.942 0 120.922 0.172 118.342 2.392ZM142.011 14V20H132.511H123.011V14V8H132.511H142.011V14ZM176.404 29.582C176.738 30.452 177.011 33.827 177.011 37.082V43H132.511H88.0113V37.082C88.0113 27.075 83.4793 28 132.511 28C171.06 28 175.863 28.173 176.404 29.582ZM68.6663 60.829C67.3993 62.229 67.0113 64.653 67.0113 71.174C67.0113 83.435 67.1113 83.5 86.0113 83.5C104.952 83.5 105.011 83.461 105.011 71C105.011 58.803 105.325 59 85.8373 59C72.0753 59 70.1343 59.207 68.6663 60.829ZM115.452 60.419C113.778 61.643 113.511 63.084 113.511 70.884C113.511 83.743 113.142 83.5 132.635 83.5C147.978 83.5 148.215 83.467 150.193 81.024C151.917 78.894 152.15 77.38 151.854 70.193C151.572 63.324 151.166 61.586 149.57 60.419C146.78 58.379 118.242 58.379 115.452 60.419ZM161.666 60.829C160.399 62.229 160.011 64.653 160.011 71.174C160.011 83.435 160.111 83.5 179.011 83.5C197.952 83.5 198.011 83.461 198.011 71C198.011 58.803 198.325 59 178.837 59C165.075 59 163.134 59.207 161.666 60.829ZM97.0113 71V76H86.0113H75.0113V71V66H86.0113H97.0113V71ZM144.011 71V76H132.511H121.011V71V66H132.511H144.011V71ZM190.011 71V76H179.011H168.011V71V66H179.011H190.011V71ZM152.065 103.941C229.408 135.523 248.524 143.711 248.849 145.396C249.31 147.79 247.055 153 245.558 153C244.343 153 235.72 149.67 170.011 123.821C150.486 116.14 133.815 109.799 132.963 109.73C130.49 109.53 50.6383 141.03 49.3003 142.734C47.9543 144.448 49.0233 147.407 51.3053 148.282C52.0473 148.567 70.3053 141.87 91.8783 133.4C113.452 124.93 131.735 118 132.508 118C134.502 118 243.011 160.586 243.011 161.369C243.011 161.557 238.269 172.914 232.473 186.606C226.677 200.297 219.464 217.351 216.443 224.502L210.95 237.503L199.23 237.502C188.429 237.5 186.963 237.735 180.511 240.5C174.51 243.072 172.298 243.493 165.011 243.451C157.915 243.41 155.355 242.915 149.511 240.451C143.333 237.846 141.337 237.5 132.511 237.5C123.685 237.5 121.689 237.846 115.511 240.451C109.667 242.915 107.107 243.41 100.011 243.451C92.7243 243.493 90.5123 243.072 84.5113 240.5C78.0573 237.734 76.5953 237.5 65.7733 237.502C58.8623 237.503 53.8713 237.092 53.6383 236.502C53.4193 235.951 46.2083 218.894 37.6123 198.597C29.0173 178.3 22.2493 161.425 22.5723 161.097C22.8963 160.769 26.6153 159.111 30.8363 157.412C37.9393 154.555 38.5113 154.108 38.5113 151.412C38.5113 147.424 35.7023 147.179 27.2053 150.426C23.5003 151.842 19.9703 153 19.3613 153C17.9533 153 15.7263 147.711 16.1723 145.426C16.5163 143.665 21.1273 141.657 86.0113 115C101.136 108.786 117.561 102.002 122.511 99.924C127.461 97.847 131.76 96.114 132.065 96.074C132.37 96.033 141.37 99.573 152.065 103.941ZM1.26129 255.107C-1.80271 258.276 1.01629 262 6.47829 262C7.90629 262 12.7743 263.462 17.2933 265.25C24.6143 268.145 26.5483 268.492 35.0113 268.427C43.3793 268.362 45.4583 267.961 52.4593 265.064C59.8833 261.991 60.9723 261.808 68.9593 262.285C75.3773 262.668 79.1333 263.506 84.0113 265.645C89.6983 268.139 91.7003 268.49 100.011 268.454C108.419 268.417 110.431 268.033 117.511 265.114C124.954 262.047 126.103 261.851 134.011 262.306C140.34 262.67 144.171 263.513 149.011 265.607C154.591 268.021 156.856 268.424 165.011 268.457C173.318 268.491 175.327 268.138 181.011 265.645C185.889 263.506 189.645 262.668 196.063 262.285C203.987 261.812 205.197 262.009 212.563 264.979C218.037 267.187 222.855 268.351 228.039 268.72C234.858 269.205 236.559 268.913 246.074 265.628C251.852 263.632 257.607 262 258.861 262C264.163 262 266.918 257.828 263.493 254.985C261.275 253.144 253.855 254.314 244.844 257.926C234.191 262.197 226.655 262.168 216.178 257.814C209.269 254.944 207.473 254.623 198.011 254.573C188.592 254.523 186.842 254.81 181.011 257.363C176.707 259.246 172.109 260.383 167.401 260.726C161.066 261.189 159.145 260.85 149.799 257.623C141.751 254.844 137.725 254 132.511 254C127.297 254 123.271 254.844 115.223 257.623C105.877 260.85 103.956 261.189 97.6213 260.726C92.9133 260.383 88.3153 259.246 84.0113 257.363C78.1803 254.81 76.4303 254.523 67.0113 254.573C57.5493 254.623 55.7533 254.944 48.8443 257.814C38.3553 262.173 30.8243 262.199 20.1783 257.915C11.3383 254.358 3.15929 253.144 1.26129 255.107Z" fill="#1E3667" style="fill:#1E3667;fill:color(display-p3 0.1176 0.2118 0.4039);fill-opacity:1;"/>
</svg>
