<svg width="75" height="75" viewBox="0 0 75 75" fill="none" xmlns="http://www.w3.org/2000/svg">
<path d="M1.05775 64.7168C0.795101 64.8021 0.651308 65.0841 0.736577 65.3468C0.821847 65.6094 1.10389 65.7532 1.36654 65.668L1.05775 64.7168ZM8.54256 66.7608L8.78925 66.3259L8.7883 66.3253L8.54256 66.7608ZM19.5305 65.1309L19.532 64.6309L19.5319 64.6309L19.5305 65.1309ZM28.1211 67.4066L28.1149 67.9066L28.1149 67.9066L28.1211 67.4066ZM37.7259 65.1309L37.7297 64.6309L37.7293 64.6309L37.7259 65.1309ZM47.0081 67.422L47.0043 67.922L47.0061 67.922L47.0081 67.422ZM56.3363 65.1616L56.3285 65.6616L56.3288 65.6616L56.3363 65.1616ZM65.6799 67.4066L65.674 66.9066L65.6738 66.9066L65.6799 67.4066ZM72.3446 65.2895C72.4577 65.0375 72.3451 64.7416 72.0932 64.6286C71.8412 64.5155 71.5453 64.6281 71.4323 64.8801L72.3446 65.2895ZM1.34974 71.0058C1.08709 71.0911 0.943295 71.3731 1.02856 71.6358C1.11383 71.8984 1.39588 72.0422 1.65852 71.9569L1.34974 71.0058ZM8.83455 73.0498L9.08123 72.6149L9.08029 72.6143L8.83455 73.0498ZM19.8225 71.4199L19.824 70.9199L19.8239 70.9199L19.8225 71.4199ZM28.4131 73.6956L28.4068 74.1955L28.4069 74.1955L28.4131 73.6956ZM38.0179 71.4199L38.0217 70.9199L38.0213 70.9199L38.0179 71.4199ZM47.3 73.711L47.2963 74.2109L47.2981 74.211L47.3 73.711ZM56.6283 71.4506L56.6205 71.9506L56.6208 71.9506L56.6283 71.4506ZM65.9719 73.6956L65.966 73.1956L65.9658 73.1956L65.9719 73.6956ZM72.6366 71.5784C72.7497 71.3265 72.6371 71.0306 72.3851 70.9176C72.1332 70.8045 71.8373 70.9171 71.7243 71.169L72.6366 71.5784ZM71.8462 43.8486C72.1003 43.9568 72.394 43.8385 72.5022 43.5845C72.6104 43.3304 72.4921 43.0367 72.2381 42.9285L71.8462 43.8486ZM40.4153 29.9187L40.1916 30.3659L40.2053 30.3728L40.2194 30.3788L40.4153 29.9187ZM35.0366 29.9187L35.2223 30.383L35.2416 30.3752L35.2603 30.3659L35.0366 29.9187ZM14.673 37.5272C14.4166 37.6297 14.2919 37.9207 14.3945 38.1771C14.4971 38.4335 14.7881 38.5582 15.0444 38.4556L14.673 37.5272ZM2.74892 40.467L3.21062 40.2751L3.20662 40.2655L3.20221 40.256L2.74892 40.467ZM3.9476 37.2533L4.14 37.7148L4.14092 37.7144L3.9476 37.2533ZM35.3439 24.0911L35.5372 24.5522L35.5727 24.5373L35.6055 24.5172L35.3439 24.0911ZM40.4921 24.0142L40.2378 24.4447L40.2677 24.4623L40.2997 24.4756L40.4921 24.0142ZM72.9335 37.5455L73.1572 37.0983L73.1418 37.0906L73.1259 37.084L72.9335 37.5455ZM73.456 41.8816L73.9105 42.0903L73.9151 42.0796L73.456 41.8816ZM4.56522 42.2524C4.31139 42.3611 4.19376 42.655 4.30249 42.9089C4.41121 43.1627 4.70513 43.2803 4.95897 43.1716L4.56522 42.2524ZM9.6615 41.1573C9.91534 41.0485 10.033 40.7546 9.92424 40.5008C9.81551 40.247 9.52159 40.1293 9.26776 40.238L9.6615 41.1573ZM24.7627 11.59C24.7627 11.8661 24.9865 12.09 25.2627 12.09C25.5388 12.09 25.7627 11.8661 25.7627 11.59H24.7627ZM25.2627 4.88584V4.38584C24.9865 4.38584 24.7627 4.6097 24.7627 4.88584H25.2627ZM50.8193 4.88584H51.3193C51.3193 4.6097 51.0954 4.38584 50.8193 4.38584V4.88584ZM50.3193 12.205C50.3193 12.4812 50.5431 12.705 50.8193 12.705C51.0954 12.705 51.3193 12.4812 51.3193 12.205H50.3193ZM33.8911 4.60906C33.8911 4.88521 34.115 5.10906 34.3911 5.10906C34.6673 5.10906 34.8911 4.88521 34.8911 4.60906H33.8911ZM34.3911 0.949463V0.449463C34.115 0.449463 33.8911 0.673321 33.8911 0.949463L34.3911 0.949463ZM41.0915 0.949463H41.5915C41.5915 0.673321 41.3676 0.449463 41.0915 0.449463V0.949463ZM40.5915 4.60906C40.5915 4.88521 40.8153 5.10906 41.0915 5.10906C41.3676 5.10906 41.5915 4.88521 41.5915 4.60906H40.5915ZM22.2199 15.8493V15.3493C21.9437 15.3493 21.7199 15.5731 21.7199 15.8493H22.2199ZM29.5196 15.8493H30.0196C30.0196 15.5731 29.7957 15.3493 29.5196 15.3493V15.8493ZM29.5196 19.5089V20.0089C29.7957 20.0089 30.0196 19.785 30.0196 19.5089H29.5196ZM22.2199 19.5089H21.7199C21.7199 19.785 21.9437 20.0089 22.2199 20.0089V19.5089ZM15.6381 31.6248C15.6038 31.8988 15.798 32.1488 16.072 32.1832C16.346 32.2175 16.596 32.0233 16.6303 31.7493L15.6381 31.6248ZM18.5777 12.205V11.705C18.3256 11.705 18.113 11.8927 18.0816 12.1428L18.5777 12.205ZM58.1343 12.205L58.6287 12.1301C58.5916 11.8857 58.3815 11.705 58.1343 11.705V12.205ZM60.6828 32.3616C60.7241 32.6347 60.979 32.8225 61.252 32.7811C61.5251 32.7397 61.7129 32.4848 61.6715 32.2118L60.6828 32.3616ZM35.0058 15.8493V15.3493C34.7297 15.3493 34.5058 15.5731 34.5058 15.8493H35.0058ZM42.3055 15.8493H42.8055C42.8055 15.5731 42.5817 15.3493 42.3055 15.3493V15.8493ZM42.3055 19.5089V20.0089C42.5817 20.0089 42.8055 19.785 42.8055 19.5089H42.3055ZM35.0058 19.5089H34.5058C34.5058 19.785 34.7297 20.0089 35.0058 20.0089V19.5089ZM47.7764 15.8493V15.3493C47.5003 15.3493 47.2764 15.5731 47.2764 15.8493H47.7764ZM55.0761 15.8493H55.5761C55.5761 15.5731 55.3523 15.3493 55.0761 15.3493V15.8493ZM55.0761 19.5089V20.0089C55.3523 20.0089 55.5761 19.785 55.5761 19.5089H55.0761ZM47.7764 19.5089H47.2764C47.2764 19.785 47.5003 20.0089 47.7764 20.0089V19.5089ZM1.21214 65.1924C1.36654 65.668 1.36626 65.668 1.366 65.6681C1.36592 65.6682 1.36567 65.6682 1.36552 65.6683C1.36522 65.6684 1.36497 65.6685 1.36476 65.6685C1.36434 65.6687 1.36409 65.6687 1.36402 65.6688C1.36387 65.6688 1.3644 65.6686 1.36562 65.6683C1.36806 65.6675 1.37322 65.666 1.38108 65.6638C1.39679 65.6594 1.42324 65.6523 1.46013 65.6435C1.53389 65.6261 1.64934 65.6021 1.80391 65.5799C2.11296 65.5356 2.57873 65.4986 3.18109 65.5358C4.3833 65.6099 6.14236 65.9804 8.29683 67.1962L8.7883 66.3253C6.50148 65.0348 4.59534 64.6211 3.24266 64.5377C2.56757 64.496 2.03348 64.5368 1.66202 64.5901C1.47634 64.6167 1.33137 64.6464 1.22979 64.6704C1.179 64.6824 1.13905 64.6931 1.11027 64.7012C1.09588 64.7052 1.08428 64.7086 1.07551 64.7113C1.07113 64.7126 1.06745 64.7137 1.06449 64.7147C1.06301 64.7151 1.06171 64.7156 1.06058 64.7159C1.06002 64.7161 1.0595 64.7163 1.05903 64.7164C1.0588 64.7165 1.05847 64.7166 1.05836 64.7166C1.05805 64.7167 1.05775 64.7168 1.21214 65.1924ZM8.29588 67.1957C9.55778 67.9114 10.6021 68.1877 11.5542 68.1584C12.5017 68.1293 13.2997 67.7983 14.0565 67.4117C15.5762 66.6356 16.9898 65.6236 19.5291 65.6309L19.5319 64.6309C16.6925 64.6228 15.0249 65.7943 13.6017 66.5212C12.887 66.8862 12.2481 67.1366 11.5234 67.1589C10.8033 67.181 9.94009 66.9786 8.78925 66.3259L8.29588 67.1957ZM19.529 65.6309C20.7531 65.6346 21.5585 65.7709 22.1537 65.9607C22.7465 66.1497 23.1554 66.3987 23.6024 66.6762C24.0517 66.9551 24.5434 67.2657 25.2479 67.5014C25.9518 67.7369 26.8441 67.8907 28.1149 67.9066L28.1273 66.9066C26.9315 66.8917 26.1468 66.7476 25.5651 66.5531C24.984 66.3587 24.5816 66.1071 24.1299 65.8267C23.6759 65.5448 23.1772 65.2374 22.4575 65.0079C21.7401 64.7792 20.8282 64.6348 19.532 64.6309L19.529 65.6309ZM28.1149 67.9066C30.7114 67.9386 32.0625 67.3288 33.3121 66.7314C34.5087 66.1592 35.5806 65.6163 37.7225 65.6309L37.7293 64.6309C35.3532 64.6147 34.1122 65.2404 32.8807 65.8292C31.7022 66.3926 30.5099 66.9361 28.1273 66.9066L28.1149 67.9066ZM37.7222 65.6309C39.6746 65.6455 40.9026 66.1744 42.1905 66.7349C43.4974 67.3036 44.8677 67.9058 47.0043 67.922L47.0118 66.922C45.0913 66.9074 43.8798 66.3794 42.5896 65.818C41.2804 65.2483 39.8958 64.6471 37.7297 64.6309L37.7222 65.6309ZM47.0061 67.922C49.0679 67.9302 50.2604 67.2957 51.4866 66.7216C52.679 66.1632 53.9651 65.6247 56.3285 65.6616L56.3441 64.6617C53.7744 64.6216 52.3328 65.2211 51.0625 65.8159C49.8259 66.395 48.8209 66.9292 47.01 66.922L47.0061 67.922ZM56.3288 65.6616C57.3086 65.6762 57.9516 65.8206 58.4625 66.0161C58.9934 66.2193 59.383 66.4735 59.9322 66.7745C61.0422 67.3828 62.4347 67.9459 65.6859 67.9066L65.6738 66.9066C62.5782 66.9441 61.3581 66.4156 60.4127 65.8975C59.9342 65.6353 59.4354 65.3177 58.8199 65.0822C58.1845 64.839 57.4233 64.6778 56.3438 64.6617L56.3288 65.6616ZM65.6858 67.9066C68.3558 67.875 70.0033 67.277 70.9999 66.6448C71.4971 66.3294 71.8254 66.0096 72.0339 65.7578C72.138 65.6321 72.2116 65.5241 72.2613 65.4429C72.2861 65.4023 72.3049 65.3685 72.3185 65.3425C72.3253 65.3295 72.3309 65.3185 72.3352 65.3096C72.3373 65.3052 72.3392 65.3013 72.3408 65.2979C72.3415 65.2962 72.3423 65.2947 72.3429 65.2933C72.3432 65.2926 72.3435 65.2919 72.3438 65.2913C72.344 65.2909 72.3442 65.2905 72.3442 65.2903C72.3444 65.2899 72.3446 65.2895 71.8885 65.0848C71.4323 64.8801 71.4325 64.8796 71.4326 64.8792C71.4327 64.8791 71.4329 64.8787 71.433 64.8785C71.4332 64.878 71.4334 64.8775 71.4336 64.8771C71.434 64.8762 71.4344 64.8755 71.4346 64.8749C71.4352 64.8737 71.4355 64.873 71.4356 64.8728C71.4358 64.8725 71.435 64.8742 71.4331 64.8778C71.4293 64.885 71.4213 64.8998 71.4082 64.9211C71.3821 64.9638 71.3359 65.0328 71.2637 65.12C71.1197 65.2939 70.8699 65.5431 70.4642 65.8004C69.655 66.3137 68.1983 66.8767 65.674 66.9066L65.6858 67.9066ZM1.50413 71.4814C1.65852 71.9569 1.65825 71.957 1.65798 71.9571C1.65791 71.9571 1.65765 71.9572 1.65751 71.9573C1.65721 71.9574 1.65696 71.9574 1.65675 71.9575C1.65633 71.9576 1.65608 71.9577 1.656 71.9577C1.65585 71.9578 1.65639 71.9576 1.65761 71.9573C1.66005 71.9565 1.66521 71.955 1.67307 71.9528C1.68877 71.9483 1.71523 71.9412 1.75211 71.9325C1.82588 71.9151 1.94133 71.8911 2.0959 71.8689C2.40494 71.8246 2.87072 71.7876 3.47307 71.8247C4.67528 71.8989 6.43435 72.2694 8.58881 73.4852L9.08029 72.6143C6.79347 71.3238 4.88733 70.9101 3.53465 70.8266C2.85955 70.785 2.32547 70.8258 1.95401 70.879C1.76833 70.9056 1.62336 70.9354 1.52178 70.9594C1.47099 70.9714 1.43104 70.982 1.40226 70.9901C1.38787 70.9942 1.37627 70.9976 1.3675 71.0003C1.36312 71.0016 1.35944 71.0027 1.35648 71.0037C1.355 71.0041 1.35369 71.0045 1.35257 71.0049C1.35201 71.0051 1.35149 71.0052 1.35102 71.0054C1.35078 71.0055 1.35046 71.0056 1.35034 71.0056C1.35003 71.0057 1.34974 71.0058 1.50413 71.4814ZM8.58787 73.4847C9.84977 74.2004 10.8941 74.4766 11.8461 74.4474C12.7937 74.4182 13.5916 74.0873 14.3485 73.7007C15.8682 72.9246 17.2818 71.9126 19.8211 71.9199L19.8239 70.9199C16.9845 70.9118 15.3169 72.0833 13.8936 72.8101C13.179 73.1751 12.5401 73.4256 11.8154 73.4478C11.0953 73.47 10.2321 73.2676 9.08123 72.6149L8.58787 73.4847ZM19.821 71.9199C21.0451 71.9236 21.8505 72.0599 22.4457 72.2497C23.0385 72.4387 23.4474 72.6877 23.8944 72.9652C24.3436 73.2441 24.8354 73.5547 25.5399 73.7904C26.2438 74.0259 27.1361 74.1797 28.4068 74.1955L28.4193 73.1956C27.2235 73.1807 26.4388 73.0366 25.8571 72.842C25.276 72.6476 24.8735 72.3961 24.4218 72.1156C23.9679 71.8338 23.4692 71.5264 22.7495 71.2969C22.0321 71.0682 21.1202 70.9238 19.824 70.9199L19.821 71.9199ZM28.4069 74.1955C31.0034 74.2276 32.3545 73.6178 33.6041 73.0204C34.8007 72.4482 35.8725 71.9053 38.0145 71.9199L38.0213 70.9199C35.6452 70.9037 34.4042 71.5294 33.1727 72.1182C31.9942 72.6816 30.8019 73.2251 28.4193 73.1956L28.4069 74.1955ZM38.0142 71.9199C39.9666 71.9344 41.1946 72.4634 42.4825 73.0239C43.7894 73.5926 45.1597 74.1948 47.2963 74.2109L47.3038 73.211C45.3833 73.1964 44.1718 72.6684 42.8815 72.1069C41.5724 71.5372 40.1878 70.9361 38.0217 70.9199L38.0142 71.9199ZM47.2981 74.211C49.3599 74.2191 50.5524 73.5847 51.7786 73.0105C52.971 72.4521 54.2571 71.9137 56.6205 71.9506L56.6361 70.9507C54.0664 70.9106 52.6247 71.5101 51.3545 72.1049C50.1179 72.684 49.1128 73.2182 47.302 73.211L47.2981 74.211ZM56.6208 71.9506C57.6006 71.9652 58.2436 72.1096 58.7545 72.3051C59.2854 72.5083 59.675 72.7625 60.2242 73.0635C61.3342 73.6718 62.7267 74.2349 65.9779 74.1956L65.9658 73.1956C62.8702 73.2331 61.6501 72.7046 60.7047 72.1865C60.2262 71.9243 59.7273 71.6067 59.1119 71.3712C58.4765 71.128 57.7152 70.9668 56.6357 70.9507L56.6208 71.9506ZM65.9778 74.1956C68.6478 74.1639 70.2953 73.566 71.2919 72.9338C71.7891 72.6184 72.1174 72.2986 72.3259 72.0467C72.43 71.9211 72.5036 71.8131 72.5532 71.7319C72.5781 71.6913 72.5969 71.6575 72.6105 71.6315C72.6173 71.6185 72.6228 71.6075 72.6272 71.5986C72.6293 71.5942 72.6312 71.5903 72.6327 71.5869C72.6335 71.5852 72.6342 71.5837 72.6349 71.5822C72.6352 71.5815 72.6355 71.5809 72.6358 71.5802C72.636 71.5799 72.6362 71.5795 72.6362 71.5793C72.6364 71.5789 72.6366 71.5784 72.1804 71.3737C71.7243 71.169 71.7245 71.1686 71.7246 71.1682C71.7247 71.1681 71.7249 71.1677 71.725 71.1674C71.7252 71.1669 71.7254 71.1665 71.7256 71.166C71.726 71.1652 71.7264 71.1645 71.7266 71.1639C71.7272 71.1627 71.7275 71.162 71.7276 71.1618C71.7278 71.1615 71.7269 71.1632 71.7251 71.1668C71.7213 71.174 71.7132 71.1887 71.7002 71.2101C71.6741 71.2527 71.6279 71.3218 71.5557 71.409C71.4117 71.5829 71.1618 71.832 70.7562 72.0894C69.947 72.6027 68.4903 73.1657 65.966 73.1956L65.9778 74.1956ZM72.2381 42.9285L40.6112 29.4587L40.2194 30.3788L71.8462 43.8486L72.2381 42.9285ZM40.4153 29.9187C40.639 29.4716 40.6389 29.4715 40.6388 29.4715C40.6388 29.4715 40.6387 29.4714 40.6386 29.4714C40.6384 29.4713 40.6383 29.4712 40.6381 29.4711C40.6377 29.4709 40.6372 29.4707 40.6366 29.4704C40.6355 29.4698 40.634 29.4691 40.6323 29.4682C40.6287 29.4665 40.6238 29.4641 40.6177 29.4612C40.6055 29.4552 40.5882 29.447 40.5662 29.4367C40.5223 29.4162 40.4595 29.3876 40.3804 29.3536C40.2226 29.2858 39.9987 29.1961 39.7307 29.1063C39.201 28.929 38.4707 28.7422 37.7259 28.7422V29.7422C38.3182 29.7422 38.9326 29.8937 39.4133 30.0546C39.6505 30.134 39.8483 30.2134 39.9858 30.2725C40.0544 30.3019 40.1077 30.3262 40.1429 30.3427C40.1605 30.3509 40.1736 30.3572 40.1818 30.3612C40.1859 30.3631 40.1888 30.3646 40.1905 30.3654C40.1913 30.3658 40.1918 30.366 40.192 30.3661C40.1921 30.3662 40.1921 30.3662 40.192 30.3661C40.192 30.3661 40.1919 30.3661 40.1919 30.3661C40.1918 30.366 40.1918 30.366 40.1917 30.366C40.1917 30.366 40.1916 30.3659 40.4153 29.9187ZM37.7259 28.7422C36.9812 28.7422 36.2509 28.929 35.7211 29.1063C35.4531 29.1961 35.2293 29.2858 35.0714 29.3536C34.9924 29.3876 34.9296 29.4162 34.8856 29.4367C34.8636 29.447 34.8464 29.4552 34.8341 29.4612C34.828 29.4641 34.8232 29.4665 34.8196 29.4682C34.8178 29.4691 34.8164 29.4698 34.8152 29.4704C34.8147 29.4707 34.8142 29.4709 34.8138 29.4711C34.8136 29.4712 34.8134 29.4713 34.8133 29.4714C34.8132 29.4714 34.8131 29.4715 34.8131 29.4715C34.813 29.4715 34.8129 29.4716 35.0366 29.9187C35.2603 30.3659 35.2602 30.366 35.2601 30.366C35.2601 30.366 35.26 30.366 35.26 30.3661C35.2599 30.3661 35.2599 30.3661 35.2598 30.3661C35.2598 30.3662 35.2598 30.3662 35.2599 30.3661C35.2601 30.366 35.2606 30.3658 35.2614 30.3654C35.263 30.3646 35.2659 30.3631 35.27 30.3612C35.2783 30.3572 35.2914 30.3509 35.309 30.3427C35.3442 30.3262 35.3975 30.3019 35.4661 30.2725C35.6036 30.2134 35.8014 30.134 36.0386 30.0546C36.5193 29.8937 37.1337 29.7422 37.7259 29.7422V28.7422ZM34.8509 29.4545L14.673 37.5272L15.0444 38.4556L35.2223 30.383L34.8509 29.4545ZM14.383 67.1532L3.21062 40.2751L2.28722 40.6589L13.4596 67.537L14.383 67.1532ZM2.74892 40.467C3.20221 40.256 3.2023 40.2562 3.20238 40.2564C3.2024 40.2564 3.20248 40.2566 3.20253 40.2567C3.20263 40.2569 3.20272 40.2571 3.2028 40.2573C3.20297 40.2576 3.2031 40.2579 3.20321 40.2582C3.20341 40.2586 3.20351 40.2588 3.20348 40.2588C3.20344 40.2587 3.20295 40.2576 3.20206 40.2555C3.20027 40.2514 3.19691 40.2435 3.19236 40.232C3.18323 40.2091 3.16948 40.1724 3.15417 40.1245C3.12329 40.0277 3.0875 39.8894 3.06893 39.7277C3.03157 39.4022 3.06645 39.0146 3.31259 38.662L2.4926 38.0896C2.06256 38.7057 2.0206 39.3638 2.07545 39.8417C2.10299 40.0816 2.15556 40.2845 2.20152 40.4285C2.22462 40.5009 2.24641 40.5595 2.26322 40.6018C2.27163 40.6229 2.27883 40.64 2.28437 40.6528C2.28715 40.6592 2.28951 40.6646 2.2914 40.6688C2.29234 40.6709 2.29317 40.6727 2.29388 40.6742C2.29423 40.675 2.29456 40.6757 2.29485 40.6763C2.29499 40.6767 2.29513 40.677 2.29526 40.6772C2.29532 40.6774 2.29541 40.6776 2.29545 40.6776C2.29554 40.6778 2.29562 40.678 2.74892 40.467ZM3.31259 38.662C3.63395 38.2016 3.87087 37.9514 4.0137 37.8225C4.08485 37.7582 4.13177 37.7249 4.15326 37.7108C4.16398 37.7038 4.16832 37.7016 4.16613 37.7028C4.16504 37.7034 4.16233 37.7048 4.15797 37.7069C4.1558 37.7079 4.15321 37.7091 4.15022 37.7104C4.14872 37.7111 4.14712 37.7118 4.14542 37.7125C4.14457 37.7129 4.14369 37.7133 4.14279 37.7137C4.14234 37.7139 4.14188 37.714 4.14141 37.7142C4.14118 37.7143 4.14083 37.7145 4.14071 37.7145C4.14036 37.7147 4.14 37.7148 3.9476 37.2533C3.7552 36.7918 3.75484 36.792 3.75449 36.7921C3.75436 36.7922 3.754 36.7923 3.75376 36.7924C3.75327 36.7926 3.75278 36.7928 3.75229 36.7931C3.75129 36.7935 3.75028 36.7939 3.74925 36.7944C3.74719 36.7952 3.74505 36.7962 3.74283 36.7972C3.7384 36.7991 3.73366 36.8013 3.72862 36.8037C3.71853 36.8085 3.70723 36.8142 3.69474 36.8209C3.66974 36.8342 3.63998 36.8516 3.60556 36.8742C3.53676 36.9192 3.44921 36.9848 3.34364 37.0802C3.13301 37.2703 2.84742 37.5813 2.4926 38.0896L3.31259 38.662ZM4.14092 37.7144L35.5372 24.5522L35.1506 23.6299L3.75429 36.7922L4.14092 37.7144ZM35.3439 24.0911C35.6055 24.5172 35.6055 24.5172 35.6054 24.5173C35.6054 24.5173 35.6053 24.5173 35.6053 24.5173C35.6052 24.5174 35.6051 24.5174 35.6051 24.5174C35.605 24.5175 35.605 24.5175 35.6051 24.5174C35.6053 24.5173 35.6058 24.517 35.6066 24.5165C35.6083 24.5155 35.6112 24.5138 35.6152 24.5113C35.6234 24.5065 35.6365 24.4988 35.654 24.4887C35.689 24.4686 35.7418 24.4389 35.8096 24.4028C35.9455 24.3306 36.1399 24.2338 36.3708 24.1371C36.8423 23.9396 37.4236 23.7607 37.9565 23.7607V22.7607C37.2291 22.7607 36.5042 22.9971 35.9845 23.2147C35.7197 23.3256 35.4973 23.4364 35.3403 23.5198C35.2616 23.5616 35.1989 23.5968 35.155 23.6221C35.1331 23.6347 35.1158 23.6449 35.1036 23.6521C35.0975 23.6558 35.0926 23.6587 35.0891 23.6609C35.0873 23.6619 35.0858 23.6628 35.0847 23.6635C35.0841 23.6639 35.0837 23.6641 35.0833 23.6644C35.0831 23.6645 35.0829 23.6646 35.0827 23.6647C35.0826 23.6648 35.0825 23.6648 35.0825 23.6649C35.0824 23.6649 35.0823 23.665 35.3439 24.0911ZM37.9565 23.7607C38.4965 23.7607 39.0631 23.9245 39.513 24.1024C39.7341 24.1898 39.9186 24.2773 40.047 24.3424C40.111 24.3748 40.1606 24.4015 40.1933 24.4196C40.2097 24.4286 40.2218 24.4355 40.2293 24.4398C40.2331 24.4419 40.2357 24.4434 40.2371 24.4443C40.2378 24.4447 40.2383 24.4449 40.2384 24.445C40.2384 24.445 40.2384 24.445 40.2383 24.445C40.2383 24.445 40.2382 24.4449 40.2381 24.4449C40.2381 24.4448 40.238 24.4448 40.238 24.4448C40.2379 24.4447 40.2378 24.4447 40.4921 24.0142C40.7464 23.5837 40.7463 23.5836 40.7462 23.5836C40.7462 23.5835 40.7461 23.5835 40.746 23.5834C40.7458 23.5833 40.7457 23.5832 40.7455 23.5831C40.7451 23.5829 40.7446 23.5826 40.744 23.5823C40.7429 23.5816 40.7415 23.5808 40.7398 23.5798C40.7363 23.5778 40.7316 23.575 40.7257 23.5717C40.7139 23.565 40.6974 23.5556 40.6764 23.544C40.6345 23.5209 40.5746 23.4887 40.4993 23.4505C40.3491 23.3743 40.136 23.2734 39.8807 23.1725C39.3778 22.9736 38.6766 22.7607 37.9565 22.7607V23.7607ZM40.2997 24.4756L72.741 38.0069L73.1259 37.084L40.6846 23.5527L40.2997 24.4756ZM72.9335 37.5455C72.7098 37.9926 72.7096 37.9926 72.7095 37.9925C72.7095 37.9925 72.7093 37.9924 72.7093 37.9924C72.7091 37.9923 72.709 37.9923 72.7089 37.9922C72.7087 37.9921 72.7085 37.992 72.7085 37.992C72.7084 37.9919 72.7085 37.992 72.709 37.9923C72.71 37.9928 72.7122 37.9939 72.7155 37.9957C72.7221 37.9991 72.7331 38.005 72.7479 38.0133C72.7775 38.0298 72.8217 38.0554 72.8755 38.0896C72.9842 38.1587 73.1259 38.2587 73.263 38.3838C73.5551 38.6504 73.7316 38.9413 73.7103 39.231L74.7076 39.3043C74.7632 38.5484 74.3019 37.9782 73.9371 37.6452C73.7457 37.4704 73.5541 37.3359 73.4116 37.2455C73.3398 37.1999 73.279 37.1645 73.235 37.1399C73.2129 37.1276 73.1949 37.118 73.1818 37.111C73.1752 37.1075 73.1698 37.1047 73.1656 37.1026C73.1636 37.1016 73.1618 37.1007 73.1604 37.1C73.1597 37.0996 73.1591 37.0993 73.1585 37.099C73.1583 37.0989 73.158 37.0987 73.1578 37.0986C73.1577 37.0986 73.1575 37.0985 73.1575 37.0985C73.1573 37.0984 73.1572 37.0983 72.9335 37.5455ZM73.7103 39.231C73.6769 39.686 73.5071 40.2884 73.3305 40.8051C73.2443 41.0573 73.1603 41.2785 73.0978 41.4364C73.0667 41.5152 73.041 41.578 73.0233 41.6206C73.0145 41.6419 73.0077 41.6582 73.0031 41.6688C73.0009 41.6742 72.9992 41.6781 72.9981 41.6806C72.9976 41.6819 72.9972 41.6828 72.997 41.6833C72.9969 41.6835 72.9968 41.6837 72.9968 41.6838C72.9968 41.6838 72.9968 41.6838 72.9968 41.6838C72.9968 41.6838 72.9968 41.6838 72.9968 41.6838C72.9968 41.6837 72.9968 41.6837 73.456 41.8816C73.9151 42.0796 73.9151 42.0796 73.9152 42.0795C73.9152 42.0795 73.9152 42.0794 73.9152 42.0793C73.9153 42.0792 73.9153 42.0791 73.9154 42.079C73.9155 42.0786 73.9157 42.0782 73.9159 42.0777C73.9163 42.0767 73.9169 42.0753 73.9177 42.0736C73.9192 42.0701 73.9213 42.0651 73.924 42.0587C73.9294 42.0459 73.9372 42.0274 73.947 42.0038C73.9666 41.9566 73.9944 41.8886 74.0278 41.8041C74.0945 41.6352 74.1844 41.399 74.2768 41.1284C74.4575 40.5995 74.6642 39.8949 74.7076 39.3043L73.7103 39.231ZM73.0016 41.673L61.6909 66.3061L62.5997 66.7234L73.9104 42.0903L73.0016 41.673ZM4.95897 43.1716L9.6615 41.1573L9.26776 40.238L4.56522 42.2524L4.95897 43.1716ZM25.7627 11.59V4.88584H24.7627V11.59H25.7627ZM25.2627 5.38584H50.8193V4.38584H25.2627V5.38584ZM50.3193 4.88584V12.205H51.3193V4.88584H50.3193ZM34.8911 4.60906V0.949463H33.8911V4.60906H34.8911ZM34.3911 1.44946H41.0915V0.449463H34.3911V1.44946ZM40.5915 0.949463V4.60906H41.5915V0.949463H40.5915ZM22.2199 16.3493H29.5196V15.3493H22.2199V16.3493ZM29.0196 15.8493V19.5089H30.0196V15.8493H29.0196ZM29.5196 19.0089H22.2199V20.0089H29.5196V19.0089ZM22.7199 19.5089V15.8493H21.7199V19.5089H22.7199ZM16.6303 31.7493L19.0738 12.2673L18.0816 12.1428L15.6381 31.6248L16.6303 31.7493ZM18.5777 12.705H58.1343V11.705H18.5777V12.705ZM57.64 12.28L60.6828 32.3616L61.6715 32.2118L58.6287 12.1301L57.64 12.28ZM35.0058 16.3493H42.3055V15.3493H35.0058V16.3493ZM41.8055 15.8493V19.5089H42.8055V15.8493H41.8055ZM42.3055 19.0089H35.0058V20.0089H42.3055V19.0089ZM35.5058 19.5089V15.8493H34.5058V19.5089H35.5058ZM47.7764 16.3493H55.0761V15.3493H47.7764V16.3493ZM54.5761 15.8493V19.5089H55.5761V15.8493H54.5761ZM55.0761 19.0089H47.7764V20.0089H55.0761V19.0089ZM48.2764 19.5089V15.8493H47.2764V19.5089H48.2764Z" fill="white" style="fill:white;fill-opacity:1;"/>
</svg>
